<svg version="1.1" xmlns="http://www.w3.org/2000/svg" xmlns:xlink="http://www.w3.org/1999/xlink" x="0px" y="0px"
	 viewBox="0 0 16 10.5">
	 <path class="st78" d="M8,10.4c0,0-0.1,0-0.1,0c-0.6,0-1.2-0.2-1.8-0.6C5.6,9.5,4.2,8.1,4.2,8.1c0,0-0.1-0.1-0.3-0.3
		 C3.5,7.5,3.1,7.1,2.9,6.9L1.9,5.8C1.4,5.3,1,4.8,0.6,4.2L0.4,3.9C-0.3,2.8,0,1.3,1.1,0.6c1.1-0.7,2.6-0.5,3.3,0.6l0.1,0.2
			c0.3,0.4,0.6,0.8,0.9,1.2l1.1,1.1c0.2,0.2,0.4,0.4,0.6,0.6c0.2,0.2,0.4,0.4,0.5,0.5C7.7,4.8,7.8,5,8,5.1C8.1,5,8.3,4.9,8.3,4.8
			c0.1-0.1,0.3-0.3,0.5-0.5C9,4.1,9.3,3.9,9.4,3.8l1.2-1.3c0.3-0.3,0.6-0.7,0.9-1.1l0.1-0.2c0.8-1.1,2.3-1.4,3.3-0.6
			c1.1,0.7,1.4,2.2,0.6,3.3l-0.2,0.3c-0.4,0.5-0.8,1-1.2,1.5L13,7c-0.1,0.2-0.5,0.5-0.9,0.8C12,7.9,11.9,8,11.8,8.1l0,0
			c0,0-1.4,1.4-2,1.8C9.3,10.2,8.7,10.4,8,10.4z"/>
</svg>
