<?xml version="1.0" encoding="utf-8"?>
<!-- Generator: Adobe Illustrator 23.0.1, SVG Export Plug-In . SVG Version: 6.00 Build 0)  -->
<svg version="1.1" id="Layer_1" xmlns="http://www.w3.org/2000/svg" xmlns:xlink="http://www.w3.org/1999/xlink" x="0px" y="0px"
	 viewBox="0 0 15 15" style="enable-background:new 0 0 15 15;" xml:space="preserve">
<style type="text/css">
	.st0{fill-rule:evenodd;clip-rule:evenodd;fill:#fff;}
</style>
<title>Fill 1</title>
<desc>Created with Sketch.</desc>
<g id="Campaign-Builder-Wireframe">
	<g transform="translate(-270.000000, -1459.000000)">
		<g id="Social-Share" transform="translate(69.000000, 1308.000000)">
			<path id="Fill-1" class="st0" d="M216,166h-3.2v-4.7c0-1.1,0-2.6-1.7-2.6s-1.9,1.2-1.9,2.5v4.8H206v-9.8h3.1v1.3l0,0
				c0.4-0.8,1.5-1.6,3-1.6c3.2,0,3.8,2,3.8,4.6L216,166L216,166z M203,155c-1.1,0-2-0.9-2-2s0.9-2,2-2s2,0.9,2,2S204.1,155,203,155z
				 M202,166h3v-10h-3V166z"/>
		</g>
	</g>
</g>
</svg>
