<?xml version="1.0" encoding="utf-8"?>
<!-- Generator: Adobe Illustrator 23.0.1, SVG Export Plug-In . SVG Version: 6.00 Build 0)  -->
<svg version="1.1" id="Layer_1" xmlns="http://www.w3.org/2000/svg" xmlns:xlink="http://www.w3.org/1999/xlink" x="0px" y="0px"
	 viewBox="0 0 16 12" style="enable-background:new 0 0 16 12;" xml:space="preserve">
<style type="text/css">
	.st0{fill-rule:evenodd;clip-rule:evenodd;fill:#fff;}
</style>
<title>Icons/Mail</title>
<desc>Created with Sketch.</desc>
<g id="Campaign-Builder-Wireframe">
	<g transform="translate(-335.000000, -1462.000000)">
		<g id="Social-Share" transform="translate(69.000000, 1308.000000)">
			<g transform="translate(266.000000, 154.000000)">
				<g>
					<g id="Mask">
						<path class="st0" d="M0.2,11.2C0,8.7,0,4.9,0,2.2C0,2,0.4,1.9,0.6,2.1C2.2,3.8,4.4,5.6,6,7.3c0.8,0.8,2.1,0.7,2.9,0
							c2.3-2,4-2.9,6.3-4.7c0.2-0.2,0.5,0,0.5,0.2c-0.1,2.7,0,5.7,0.2,8.3c0,0.2-0.1,0.3-0.3,0.3c-5,0.2-10.1,0.3-15.1,0
							C0.3,11.4,0.2,11.3,0.2,11.2z M15.3,0.8c-2.4,1.8-5.4,3.6-7.6,5.4c-0.2,0.2-0.6,0.2-0.8,0C5.1,4.3,2.5,2.5,0.8,0.7
							C0.6,0.4,0.8,0,1.1,0C5.2,0.1,10.9,0.1,15,0C15.4,0,15.6,0.5,15.3,0.8z"/>
					</g>
				</g>
			</g>
		</g>
	</g>
</g>
</svg>
