<?xml version="1.0" encoding="utf-8"?>
<!-- Generator: Adobe Illustrator 23.0.1, SVG Export Plug-In . SVG Version: 6.00 Build 0)  -->
<svg version="1.1" id="Layer_1" xmlns="http://www.w3.org/2000/svg" xmlns:xlink="http://www.w3.org/1999/xlink" x="0px" y="0px"
	 viewBox="0 0 17 13" style="enable-background:new 0 0 17 13;" xml:space="preserve">
<style type="text/css">
	.st0{fill:#fff;}
</style>
<title>twitter copy</title>
<desc>Created with Sketch.</desc>
<g id="Campaign-Builder-Wireframe">
	<g transform="translate(-204.000000, -1462.000000)">
		<g id="Social-Share" transform="translate(69.000000, 1308.000000)">
			<g transform="translate(135.000000, 153.000000)">
				<g id="Mask">
					<path class="st0" d="M15.3,4.4c0,0.1,0,0.3,0,0.4c0,4.1-3.5,8.7-9.9,8.7c-2,0-3.8-0.5-5.4-1.4c0.3,0,0.6,0,0.8,0
						c1.6,0,3.1-0.5,4.3-1.3c-1.5,0-2.8-0.9-3.3-2.1c0.2,0,0.4,0,0.7,0s0.6,0,0.9-0.1c-1.6-0.3-2.8-1.5-2.8-3l0,0
						C1.1,5.8,1.6,6,2.2,6C1.3,5.5,0.7,4.6,0.7,3.5c0-0.6,0.2-1.1,0.5-1.6C2.9,3.8,5.5,5,8.4,5.1C8.3,5,8.3,4.7,8.3,4.5
						c0-1.7,1.6-3.1,3.5-3.1c1,0,1.9,0.4,2.5,1c0.8-0.1,1.5-0.4,2.2-0.7C16.2,2.4,15.7,3,15,3.4c0.7-0.1,1.4-0.2,2-0.5
						C16.5,3.5,15.9,4,15.3,4.4z"/>
				</g>
			</g>
		</g>
	</g>
</g>
</svg>
